<svg width="58" height="58" viewBox="0 0 58 58" fill="none" xmlns="http://www.w3.org/2000/svg">
<path fill-rule="evenodd" clip-rule="evenodd" d="M24.7072 47.6994C23.1747 46.81 21.6546 45.9289 20.1138 45.0519C19.3142 44.5903 18.5149 44.1282 17.7156 43.6662C15.0082 42.1011 12.301 40.5361 9.58638 38.9885C9.32112 38.8695 9.09878 38.672 8.94942 38.4225C8.80005 38.1731 8.73087 37.8838 8.75121 37.5938V20.573C8.77395 20.4471 8.74769 20.3173 8.67781 20.2102C8.60794 20.103 8.49974 20.0266 8.37538 19.9967C7.63297 19.7627 6.98153 19.304 6.51102 18.6839C6.04052 18.0638 5.77417 17.3129 5.74875 16.5349C5.67056 15.7619 5.83631 14.9838 6.22274 14.3098C6.60918 13.6358 7.19692 13.0997 7.9035 12.7766C9.4444 11.9957 10.9143 12.2212 12.2631 13.2861L12.5178 13.499C12.5387 13.5117 12.5612 13.5216 12.5847 13.5283L18.6438 10.0373C21.6505 8.30009 24.6543 6.56291 27.6554 4.82575C27.8992 4.66808 28.1835 4.58423 28.4738 4.58423C28.7642 4.58423 29.0484 4.66808 29.2923 4.82575L43.9162 13.2151L44.4716 13.5241C45.2185 12.7631 46.2366 12.3291 47.3028 12.3173C48.2308 12.3118 49.1313 12.6317 49.8477 13.2215C50.5641 13.8113 51.0511 14.6335 51.224 15.5452C51.3967 16.4488 51.2462 17.3843 50.7989 18.1882C50.3515 18.992 49.6358 19.6129 48.7769 19.9424C48.6082 19.9806 48.4605 20.0819 48.3642 20.2256C48.2679 20.3693 48.2303 20.5444 48.2591 20.715C48.2591 26.344 48.2591 31.9689 48.28 37.598C48.3016 37.8846 48.2362 38.171 48.0924 38.4198C47.9486 38.6687 47.7331 38.8683 47.4741 38.9927C45.087 40.3623 42.7077 41.7338 40.3292 43.1049C37.7979 44.564 35.2673 46.0227 32.7291 47.4781C32.6035 47.5294 32.5021 47.6266 32.4455 47.7499C32.3889 47.8732 32.3813 48.0134 32.4242 48.1421C32.5763 48.8969 32.4947 49.6801 32.1903 50.3874C31.8859 51.0947 31.3732 51.6923 30.7205 52.1008C30.0973 52.5552 29.3478 52.8034 28.5766 52.8109C27.8054 52.8184 27.0512 52.5847 26.4193 52.1425C25.757 51.7499 25.2302 51.1646 24.9094 50.4647C24.5885 49.7648 24.4889 48.9836 24.6237 48.2256C24.6345 48.1521 24.6476 48.0719 24.6623 47.9815L24.6623 47.9812L24.6623 47.9811C24.676 47.897 24.6911 47.804 24.7072 47.6994ZM31.3886 46.0291C31.4272 46.0164 31.4649 46.0011 31.5014 45.9831C36.3704 43.1769 41.2423 40.3652 46.1169 37.5479C46.1912 37.4907 46.2524 37.4183 46.2964 37.3354C46.3403 37.2526 46.366 37.1613 46.3716 37.0677V20.4727C46.3716 20.1804 46.2589 20.076 46 19.98C45.3605 19.7725 44.7884 19.3972 44.3433 18.8934C43.8982 18.3895 43.5964 17.7755 43.4694 17.1154C43.3995 16.4535 43.3925 15.7866 43.4485 15.1235L43.2898 15.0191L28.8079 6.66732C28.7144 6.62917 28.6138 6.61167 28.5129 6.61599C28.412 6.62031 28.3132 6.64637 28.2233 6.69238C23.4405 9.43175 18.6647 12.1809 13.8959 14.9397C13.7837 14.9855 13.6931 15.0723 13.6427 15.1824C13.5922 15.2926 13.5857 15.4179 13.6244 15.5327C13.8088 16.4512 13.6545 17.4054 13.1901 18.219C12.7257 19.0326 11.9826 19.6507 11.098 19.9591C10.7347 20.0886 10.6805 20.2681 10.6805 20.6064V36.9173C10.6641 37.0682 10.6956 37.2203 10.7705 37.3523C10.8455 37.4842 10.9601 37.5892 11.098 37.6523C15.2906 40.0576 19.4804 42.4726 23.6674 44.8974C24.0626 45.1275 24.4592 45.3546 24.8538 45.5805L24.8553 45.5813L24.8558 45.5817C25.1194 45.7326 25.382 45.8829 25.6426 46.0333C27.4842 44.3796 29.7976 44.5383 31.3886 46.05V46.0291ZM9.71583 18.3263C10.1305 18.3346 10.5382 18.2193 10.887 17.995C11.2358 17.7706 11.5099 17.4475 11.6743 17.0668C11.8388 16.6861 11.8861 16.265 11.8104 15.8573C11.7346 15.4495 11.5391 15.0736 11.2488 14.7774C10.9585 14.4812 10.5866 14.2782 10.1805 14.1942C9.77441 14.1102 9.35248 14.149 8.96852 14.3057C8.58456 14.4625 8.25597 14.73 8.02464 15.0742C7.79332 15.4184 7.66974 15.8237 7.66965 16.2384C7.66406 16.7893 7.87643 17.3201 8.26049 17.7151C8.64454 18.1101 9.16916 18.3373 9.72001 18.3472L9.71583 18.3263ZM47.2987 18.3263C47.593 18.3616 47.8914 18.3339 48.1742 18.2449C48.4569 18.1559 48.7174 18.0077 48.9385 17.8102C49.1595 17.6127 49.3359 17.3704 49.456 17.0994C49.5762 16.8284 49.6372 16.5349 49.6351 16.2385C49.633 15.9421 49.5678 15.6496 49.4439 15.3803C49.32 15.111 49.1401 14.8713 48.9163 14.6769C48.6926 14.4825 48.4299 14.338 48.146 14.253C47.862 14.168 47.5632 14.1445 47.2694 14.1839C46.7658 14.2515 46.3041 14.5005 45.9708 14.8841C45.6376 15.2678 45.4557 15.7598 45.4593 16.268C45.4629 16.7762 45.6517 17.2656 45.9903 17.6445C46.3289 18.0234 46.7941 18.2659 47.2987 18.3263ZM30.5952 48.7768C30.5941 48.5045 30.5391 48.2351 30.4334 47.9841C30.3277 47.7331 30.1733 47.5056 29.9792 47.3146C29.7851 47.1236 29.5551 46.9729 29.3024 46.8713C29.0498 46.7696 28.7796 46.719 28.5073 46.7223C28.0929 46.7223 27.6879 46.8457 27.3439 47.0766C26.9998 47.3075 26.7323 47.6356 26.5753 48.0191C26.4183 48.4026 26.3789 48.8241 26.4622 49.23C26.5455 49.6359 26.7477 50.0078 27.0431 50.2985C27.3384 50.5891 27.7136 50.7853 28.1208 50.862C28.528 50.9388 28.9488 50.8926 29.3297 50.7295C29.7106 50.5663 30.0343 50.2935 30.2597 49.9457C30.485 49.598 30.6018 49.1911 30.5952 48.7768ZM41.9205 27.1374V34.0651C41.9399 34.3074 41.8862 34.5499 41.7663 34.7613C41.6465 34.9727 41.466 35.1433 41.2482 35.2511C37.231 37.5562 33.2208 39.8724 29.2175 42.1997C29.0143 42.3318 28.7771 42.4021 28.5347 42.4021C28.2924 42.4021 28.0552 42.3318 27.852 42.1997C23.8292 39.8668 19.8051 37.5422 15.7795 35.226C15.5685 35.1211 15.3933 34.956 15.2759 34.7517C15.1585 34.5473 15.1042 34.3128 15.1198 34.0777V20.172C15.1073 19.9299 15.1654 19.6893 15.287 19.4796C15.4085 19.2698 15.5883 19.0998 15.8046 18.9902C19.8218 16.6852 23.832 14.3689 27.8353 12.0416C28.0429 11.9007 28.288 11.8253 28.5389 11.8253C28.7898 11.8253 29.035 11.9007 29.2426 12.0416C33.2236 14.3494 37.2073 16.649 41.1939 18.9401C41.428 19.0507 41.623 19.2296 41.7535 19.4532C41.8839 19.6768 41.9436 19.9347 41.9247 20.1929C41.913 21.8178 41.9156 23.4365 41.9182 25.0549V25.0561V25.0563C41.9194 25.7499 41.9205 26.4435 41.9205 27.1374ZM40.033 21.6002C39.9466 21.6459 39.8726 21.6841 39.8062 21.7183C39.7089 21.7685 39.628 21.8102 39.5486 21.8549C38.6098 22.3969 37.6704 22.938 36.731 23.4791C34.2689 24.8973 31.8066 26.3155 29.3553 27.7512C29.1132 27.9195 28.8254 28.0097 28.5306 28.0097C28.2357 28.0097 27.9479 27.9195 27.7058 27.7512C25.0633 26.2043 22.4104 24.6752 19.7574 23.1461L19.7564 23.1455C19.0223 22.7224 18.2882 22.2993 17.5543 21.8758L17.0448 21.6043C17.0448 21.6878 17.0372 21.7437 17.0311 21.7877L17.0311 21.7878V21.7878C17.0272 21.8165 17.024 21.8402 17.024 21.8632V33.4179C17.0175 33.5322 17.0465 33.6457 17.1071 33.7429C17.1676 33.8401 17.2567 33.9161 17.3622 33.9607C20.6333 35.8399 23.8988 37.7232 27.1588 39.6107C27.2182 39.6455 27.2795 39.6783 27.3464 39.714C27.4159 39.7511 27.4912 39.7914 27.5764 39.8404V38.6669V35.6478C27.5725 35.5216 27.594 35.3959 27.6397 35.2783C27.6854 35.1606 27.7544 35.0533 27.8425 34.9629C27.9306 34.8725 28.036 34.8007 28.1524 34.752C28.2688 34.7032 28.3939 34.6784 28.5201 34.679C28.6462 34.6783 28.7711 34.7032 28.8871 34.7524C29.0032 34.8016 29.108 34.8739 29.1952 34.965C29.2823 35.0561 29.35 35.164 29.3941 35.2821C29.4381 35.4002 29.4576 35.526 29.4514 35.652V36.7377V39.8362C29.509 39.8096 29.5583 39.7877 29.602 39.7682L29.602 39.7682C29.6817 39.7328 29.7428 39.7057 29.8021 39.6733C33.1233 37.7635 36.4362 35.8552 39.7407 33.9482C39.8485 33.8902 39.9353 33.7996 39.9886 33.6894C40.0418 33.5791 40.0588 33.4549 40.0372 33.3343V23.9512L40.033 21.6002ZM39.06 19.9298C39.0008 19.8781 38.938 19.8307 38.8721 19.7878C35.5147 17.8391 32.1545 15.9043 28.7916 13.9834C28.6979 13.9477 28.5978 13.9322 28.4978 13.9379C28.3977 13.9437 28.3 13.9705 28.2111 14.0168C27.1245 14.643 26.045 15.2693 24.9654 15.8956C24.6053 16.1045 24.2453 16.3134 23.8849 16.5223L18.0262 19.9131C18.0768 19.9479 18.1214 19.9809 18.1629 20.0116L18.1629 20.0116C18.2312 20.0621 18.2912 20.1065 18.3561 20.1428C21.6466 22.0414 24.9358 23.9442 28.2236 25.8512C28.3235 25.9226 28.4433 25.961 28.5661 25.961C28.6889 25.961 28.8086 25.9226 28.9085 25.8512C32.0432 24.0305 35.182 22.221 38.3251 20.4226C38.5548 20.2472 38.7928 20.1052 39.06 19.9465V19.9298ZM27.8799 30.7115C27.6985 30.8873 27.5938 31.1275 27.5883 31.3801C27.5938 31.633 27.6984 31.8736 27.8796 32.0502C28.0608 32.2267 28.3041 32.325 28.5571 32.3238C28.796 32.3079 29.0199 32.2018 29.1835 32.0269C29.3471 31.8521 29.4381 31.6216 29.4381 31.3822C29.4381 31.1427 29.3471 30.9123 29.1835 30.7374C29.0199 30.5626 28.796 30.4564 28.5571 30.4405C28.3045 30.4383 28.0612 30.5356 27.8799 30.7115Z" fill="#EC3535"/>
</svg>
