<svg width="20" height="20" viewBox="0 0 20 20" fill="none" xmlns="http://www.w3.org/2000/svg">
<path d="M12.3497 3.5498C12.1842 3.84621 12.0367 4.15232 11.908 4.46647C10.6437 4.26651 9.35572 4.26651 8.09135 4.46647C7.96268 4.15232 7.81519 3.84621 7.64969 3.5498C6.45868 3.75331 5.30086 4.11775 4.20802 4.63314C2.2538 7.45338 1.36755 10.8773 1.70802 14.2915C2.98155 15.2489 4.4109 15.979 5.93302 16.4498C6.27961 15.992 6.58894 15.5071 6.85802 14.9998C6.36141 14.8167 5.8841 14.585 5.43302 14.3081C5.55674 14.2258 5.67377 14.1339 5.78302 14.0331C7.0984 14.6667 8.53966 14.9958 9.99969 14.9958C11.4597 14.9958 12.901 14.6667 14.2164 14.0331C14.333 14.1331 14.4497 14.2248 14.5664 14.3081C14.1128 14.5828 13.636 14.8171 13.1414 15.0081C13.3993 15.5269 13.7003 16.0231 14.0414 16.4915C15.5616 16.0223 16.9884 15.292 18.258 14.3331C18.6067 10.9183 17.7197 7.49162 15.758 4.6748C14.6775 4.14875 13.5311 3.77036 12.3497 3.5498ZM7.23302 12.3415C6.81601 12.3115 6.42681 12.1212 6.14712 11.8104C5.86743 11.4997 5.71902 11.0927 5.73302 10.6748C5.7169 10.2564 5.86459 9.84821 6.1447 9.53698C6.4248 9.22575 6.81524 9.03603 7.23302 9.00814C7.6508 9.03603 8.04124 9.22575 8.32134 9.53698C8.60145 9.84821 8.74914 10.2564 8.73302 10.6748C8.74914 11.0932 8.60145 11.5014 8.32134 11.8126C8.04124 12.1239 7.6508 12.3136 7.23302 12.3415ZM12.7664 12.3415C12.3493 12.3115 11.9601 12.1212 11.6805 11.8104C11.4008 11.4997 11.2523 11.0927 11.2664 10.6748C11.2502 10.2564 11.3979 9.84821 11.678 9.53698C11.9581 9.22575 12.3486 9.03603 12.7664 9.00814C13.1849 9.03395 13.5766 9.22306 13.8571 9.53476C14.1377 9.84646 14.2846 10.2558 14.2664 10.6748C14.2846 11.0938 14.1377 11.5031 13.8571 11.8148C13.5766 12.1266 13.1849 12.3157 12.7664 12.3415Z" fill="#EC3535"/>
</svg>
