<svg width="58" height="58" viewBox="0 0 58 58" fill="none" xmlns="http://www.w3.org/2000/svg">
<g clip-path="url(#clip0_1_7815)">
<path d="M46.6239 23.5746C46.8116 23.4333 47.0013 23.292 47.1849 23.1467C52.9387 18.5998 54.1315 11.6835 52.0285 5.6269C51.7843 4.92054 51.2374 4.56736 50.5472 4.73486C49.7621 4.92659 49.0477 4.75505 48.3434 4.45838C47.639 4.1617 46.8983 3.8287 46.1859 3.49167C45.3214 3.05376 44.3665 2.82373 43.3974 2.81987C42.4283 2.81602 41.4716 3.03846 40.6036 3.46947C39.8751 3.81256 39.1384 4.13345 38.3978 4.4503C37.6571 4.76716 36.9608 4.92054 36.1536 4.73083C36.0012 4.68952 35.8419 4.67974 35.6856 4.70209C35.5293 4.72445 35.3792 4.77846 35.2445 4.86083C35.1098 4.94321 34.9934 5.0522 34.9022 5.18115C34.8111 5.31009 34.7473 5.45628 34.7146 5.61075C34.3803 6.77013 34.1075 7.94635 33.8972 9.1345C33.7438 10.0689 33.766 11.0316 33.7075 12.0124C33.5521 11.962 33.3927 11.9216 33.2393 11.8631C29.7242 10.5089 25.9009 10.1629 22.1999 10.8641C15.4733 12.1335 10.446 15.8207 7.25524 21.8611C4.41163 27.2477 4.11697 32.8945 6.10084 38.6524C6.2179 38.9935 6.17955 39.1993 5.91921 39.4334C5.54383 39.7684 5.19872 40.1398 4.84554 40.499C4.12101 41.2357 4.1089 42.0813 4.82939 42.8038C8.51863 46.5051 12.2112 50.2051 15.9072 53.9038C16.6822 54.6787 17.4935 54.6666 18.2826 53.8876C18.8699 53.3104 19.4551 52.7292 20.0243 52.1358C20.0983 52.0378 20.2013 51.9656 20.3186 51.9294C20.436 51.8932 20.5618 51.8948 20.6782 51.934C24.0747 52.8129 27.639 52.8129 31.0355 51.934C31.1583 51.8904 31.2918 51.8865 31.417 51.9227C31.5423 51.9589 31.6531 52.0334 31.7337 52.1358C32.3352 52.7696 32.952 53.3885 33.5844 53.9926C34.208 54.598 35.0314 54.6444 35.6228 54.0713C37.1061 52.6323 38.5572 51.159 40.0143 49.6918C40.0855 49.6303 40.1437 49.5552 40.1857 49.471C40.2276 49.3868 40.2524 49.2951 40.2586 49.2012C40.2648 49.1073 40.2523 49.0132 40.2218 48.9241C40.1913 48.8351 40.1434 48.7531 40.0809 48.6827C39.7822 48.2791 39.2737 48.2932 38.87 48.711C37.8085 49.7645 36.7516 50.8234 35.6995 51.8876C35.3624 52.2327 35.0617 52.6121 34.7872 52.927L30.8316 48.9754L41.9982 37.7947L45.8792 41.6897C44.4503 43.1307 43.0248 44.563 41.6026 45.9865C41.1788 46.4123 41.1304 46.8361 41.4533 47.1772C41.7762 47.5182 42.2303 47.492 42.642 47.0823C44.083 45.6481 45.5192 44.2084 46.9508 42.7634C47.6148 42.0914 47.6087 41.2478 46.9508 40.5636C46.5815 40.1741 46.2081 39.7846 45.8085 39.4274C45.5441 39.1912 45.5139 38.9834 45.6329 38.6483C47.1634 34.4282 47.2866 29.8261 45.9841 25.5302C45.865 25.1265 45.5663 24.6745 45.6733 24.3475C45.7803 24.0206 46.2929 23.8268 46.6239 23.5746ZM17.108 52.7615L5.97168 41.5989L9.76586 37.8189L20.9123 48.9875C19.6549 50.2448 18.3593 51.5223 17.108 52.7615ZM30.1676 50.5899C27.3357 51.2317 24.3961 51.2317 21.5641 50.5899C22.1474 50.045 22.7952 49.484 22.4784 48.6948C22.22 48.0551 21.6913 47.5243 21.3502 47.0399C22.8013 45.5364 24.2887 43.9945 25.7458 42.4889L30.317 47.05C29.9537 47.6232 29.4673 48.162 29.2453 48.7958C28.983 49.5485 29.6227 50.043 30.1676 50.5899ZM31.538 45.8936L27.2009 41.5666C27.9981 41.5081 28.7226 41.389 29.4431 41.4133C30.7771 41.4597 32.097 41.4859 33.3543 40.9471C33.6499 40.8285 33.936 40.6875 34.21 40.5253C34.2962 40.4788 34.3718 40.4151 34.4321 40.338C34.4924 40.2609 34.536 40.1721 34.5603 40.0773C34.5846 39.9825 34.5889 39.8837 34.5731 39.7871C34.5573 39.6905 34.5216 39.5983 34.4684 39.5162C34.2423 39.161 33.8992 38.9955 33.5178 39.2094C32.1939 39.9602 30.7711 39.9581 29.3099 39.8794C28.3675 39.814 27.4222 39.9533 26.5387 40.2877C25.6553 40.6222 24.8546 41.1438 24.1918 41.8169C22.8275 43.159 21.4915 44.5293 20.1736 45.8533L12.3875 38.0611C12.9788 37.4717 13.6145 36.8279 14.2684 36.2043C14.3243 36.164 14.3889 36.1375 14.4569 36.127C14.525 36.1165 14.5945 36.1222 14.6599 36.1438C15.043 36.3181 15.4591 36.4081 15.8799 36.4076C16.3008 36.4072 16.7167 36.3164 17.0994 36.1413C17.4821 35.9662 17.8227 35.7109 18.0983 35.3928C18.3738 35.0746 18.5777 34.701 18.6963 34.2972C18.6963 34.2689 18.7387 34.2487 18.7609 34.2265C20.9324 35.0863 22.5288 33.9864 23.0758 32.2426C24.1676 32.6241 25.217 32.5434 26.1353 31.7785C27.0536 31.0136 27.3099 29.9823 27.1222 28.8117C27.2837 28.7714 27.4128 28.7431 27.5379 28.7088C28.0222 28.5758 28.4641 28.3205 28.8214 27.9675C29.1786 27.6145 29.4391 27.1756 29.5779 26.693C29.7167 26.2104 29.7291 25.7002 29.614 25.2113C29.4988 24.7225 29.26 24.2715 28.9204 23.9015C28.5571 23.4979 28.1454 23.1568 27.7095 22.7431C27.9295 22.515 28.1131 22.3253 28.2907 22.1376C28.8962 21.5322 29.4915 20.9166 30.1071 20.3213C30.7226 19.7259 31.5198 19.7158 32.099 20.2405C32.6782 20.7653 32.7045 21.5302 32.2221 22.1962C31.8669 22.6785 31.8488 23.0579 32.1656 23.3627C32.4825 23.6674 32.8276 23.6492 33.2898 23.3041C33.9336 22.8258 34.7025 22.846 35.2131 23.3586C35.7237 23.8712 35.7459 24.6301 35.3059 25.29C35.1332 25.5227 35.0455 25.8077 35.0577 26.0973C35.1646 26.7027 35.7984 26.8077 36.3715 26.3778C37.2514 25.7179 38.3897 26.063 38.6642 27.0822C38.7233 27.3023 38.7283 27.5334 38.6788 27.7559C38.6292 27.9783 38.5266 28.1855 38.3796 28.3597C38.0183 28.84 38.0042 29.2194 38.3211 29.5242C38.6379 29.8289 38.979 29.8047 39.4835 29.4313C39.7532 29.2109 40.0947 29.0978 40.4427 29.1139C40.7906 29.1299 41.1203 29.2738 41.3685 29.5181C41.6098 29.7686 41.7527 30.0976 41.7713 30.4448C41.7898 30.7921 41.6827 31.1344 41.4694 31.4091C41.3451 31.5667 41.2102 31.7157 41.0658 31.8552L36.2222 36.6988C36.1273 36.7936 36.0204 36.8845 35.9396 36.9854C35.6248 37.3486 35.6248 37.7664 35.9396 38.0671C36.0099 38.1409 36.0948 38.1991 36.189 38.2379C36.2831 38.2767 36.3844 38.2953 36.4862 38.2924C36.588 38.2896 36.6881 38.2654 36.78 38.2213C36.8718 38.1773 36.9534 38.1144 37.0194 38.0368C37.4432 37.6332 37.8387 37.1953 38.2161 36.8017L39.3947 38.0126L31.538 45.8936ZM24.8114 23.4212C26.2241 23.2981 27.0152 24.0004 27.8023 24.9106C27.9886 25.1079 28.113 25.3554 28.1604 25.6225C28.2077 25.8897 28.1759 26.1649 28.0687 26.4141C27.8568 26.9469 27.433 27.2941 26.8719 27.2497C26.4443 27.2246 26.0358 27.0642 25.7054 26.7915C24.0236 25.177 22.3707 23.5295 20.7468 21.849C19.9254 21.0054 20.2765 19.7824 21.4188 19.4817C21.4316 19.9129 21.4707 20.3429 21.5359 20.7693C21.8669 22.3213 23.217 23.5604 24.8114 23.4212ZM22.995 19.4756C23.0379 19.3856 23.102 19.3074 23.1818 19.2476C23.2616 19.1879 23.3547 19.1484 23.4532 19.1326C24.7771 19.1083 26.103 19.1124 27.429 19.1326C27.875 19.1326 28.212 19.3828 28.4764 19.7905L26.4138 21.8632C26.3814 21.9024 26.3365 21.9295 26.2867 21.9398C25.4572 21.9298 24.5995 22.1215 23.8326 21.6371C23.4872 21.4073 23.2219 21.0759 23.0733 20.6886C22.9247 20.3013 22.9001 19.8775 23.0031 19.4756H22.995ZM25.215 28.4828C25.3561 28.6105 25.4698 28.7653 25.5496 28.9381C25.6293 29.1108 25.6733 29.2979 25.679 29.4881C25.6846 29.6782 25.6518 29.8676 25.5825 30.0448C25.5132 30.2219 25.4088 30.3833 25.2756 30.5191C24.7085 31.1024 23.8366 31.1044 23.2089 30.4808C21.3603 28.6483 19.5211 26.8077 17.6912 24.959C17.4704 24.7609 17.3192 24.4969 17.2599 24.2061C17.2007 23.9154 17.2366 23.6133 17.3623 23.3445C17.5924 22.7976 18.0444 22.5372 18.8214 22.4706C19.0232 22.5816 19.4269 22.7068 19.6933 22.9691C21.548 24.7875 23.3825 26.6321 25.213 28.4828H25.215ZM21.219 30.6685C21.3448 30.7995 21.4433 30.9543 21.5088 31.1238C21.5742 31.2933 21.6053 31.4741 21.6002 31.6557C21.5952 31.8373 21.554 32.016 21.4792 32.1816C21.4044 32.3472 21.2975 32.4962 21.1645 32.62C20.913 32.8743 20.5728 33.0211 20.2153 33.0298C19.8577 33.0384 19.5108 32.9082 19.2473 32.6665C17.6408 31.0963 16.0538 29.5053 14.4864 27.8935C14.2937 27.6998 14.1696 27.4484 14.1332 27.1777C14.0967 26.9069 14.1499 26.6317 14.2846 26.394C14.5409 25.8652 14.9768 25.5867 15.6085 25.508C15.9031 25.6472 16.2604 25.7239 16.4824 25.9399C18.0821 27.4966 19.661 29.0728 21.219 30.6685ZM14.2906 29.9197C15.223 30.7835 16.107 31.6957 16.9869 32.6221C17.1887 32.8239 17.2392 33.1831 17.3582 33.4697C17.2715 34.0752 17.0071 34.499 16.4965 34.7472C16.2601 34.8815 15.9867 34.9364 15.7168 34.9037C15.4468 34.871 15.1945 34.7525 14.997 34.5656C14.0848 33.7018 13.1907 32.8158 12.335 31.8975C12.1065 31.6338 11.988 31.2924 12.0042 30.9438C12.0203 30.5952 12.1698 30.2661 12.4218 30.0247C12.9203 29.5201 13.7679 29.4273 14.2947 29.9177L14.2906 29.9197ZM44.3171 37.8915C44.0043 37.5868 43.7298 37.3264 43.4634 37.06C42.3373 35.9339 41.8489 35.8976 40.6561 36.8582C40.2727 36.4546 39.8892 36.0732 39.4069 35.5827C39.6611 35.3567 39.982 35.0943 40.2767 34.8057C40.9487 34.1478 41.6026 33.4697 42.2747 32.8118C43.2293 31.8753 43.5643 30.7573 43.1042 29.4999C42.6561 28.2729 41.6914 27.6634 40.3937 27.6069C40.349 27.5984 40.3056 27.5842 40.2646 27.5645C40.2652 26.759 39.9542 25.9845 39.3968 25.403C39.105 25.1132 38.7584 24.8845 38.3773 24.7303C37.9961 24.5761 37.5879 24.4995 37.1768 24.505C37.1864 23.6862 36.8732 22.8966 36.3049 22.3072C36.0207 22.0224 35.6823 21.7976 35.3096 21.6461C34.9369 21.4946 34.5376 21.4195 34.1354 21.4252C33.9981 18.9449 31.7539 17.6714 29.6046 18.743C28.8659 17.7743 27.8286 17.5321 26.66 17.5907C25.7216 17.629 24.7791 17.5664 23.8346 17.6108C23.3425 17.6659 22.8549 17.7556 22.3754 17.8793C22.2626 17.9038 22.1477 17.9173 22.0324 17.9196C20.0727 17.8833 18.9546 18.8964 18.7548 20.9469C17.9476 20.9913 17.1928 21.2173 16.5913 21.8127C16.2996 22.1027 16.0701 22.4491 15.9167 22.8308C15.7633 23.2125 15.6894 23.6215 15.6993 24.0327C14.6721 24.0852 13.7901 24.4363 13.1826 25.286C12.5752 26.1356 12.4783 27.0801 12.8315 28.1114C12.7023 28.1619 12.5853 28.2144 12.4662 28.2567C12.0032 28.4164 11.5876 28.6896 11.2575 29.0514C10.9274 29.4132 10.6933 29.852 10.5767 30.3277C10.46 30.8033 10.4645 31.3006 10.5898 31.7741C10.715 32.2476 10.957 32.6821 11.2936 33.0378C11.9233 33.7099 12.6054 34.3315 13.2331 34.947C12.5207 35.6554 11.8607 36.3133 11.1766 36.9914C11.0736 36.8966 10.9182 36.7452 10.7548 36.6039C10.4854 36.3432 10.1243 36.1987 9.74943 36.2017C9.37454 36.2048 9.01585 36.355 8.75071 36.6201C8.32488 37.0237 7.94344 37.4758 7.55595 37.9057L7.35413 37.8552C7.13011 36.941 6.85362 36.0388 6.68612 35.1125C5.82156 30.4381 6.69395 25.6089 9.13932 21.5324C11.5847 17.4559 15.4347 14.4128 19.9657 12.9751C24.5571 11.518 29.1 11.7642 33.538 13.6492C33.6435 13.6979 33.7376 13.7682 33.8144 13.8554C33.8912 13.9426 33.949 14.0449 33.984 14.1557C35.0355 19.3243 38.198 22.8097 42.7227 25.2234C43.2414 25.4999 43.7217 25.3929 44.2485 25.0963C45.6975 29.2344 45.7217 33.7381 44.3171 37.8915ZM43.6713 23.6492C43.5886 23.6919 43.4978 23.7165 43.4049 23.7213C43.312 23.7262 43.2191 23.7113 43.1324 23.6775C39.7903 21.8611 37.2091 19.3404 35.9699 15.6512C34.9285 12.5493 35.0718 9.44126 36.0668 6.27272C37.5582 6.55123 38.8075 5.94981 40.0648 5.38472C40.6157 5.1385 41.1647 4.88825 41.7217 4.65817C42.2407 4.4365 42.7992 4.32222 43.3635 4.32222C43.9278 4.32222 44.4863 4.4365 45.0053 4.65817C45.7944 4.98512 46.5734 5.34032 47.3524 5.68947C48.6259 6.26061 49.2596 6.38372 50.6602 6.31308C51.0776 7.4572 51.3323 8.65421 51.417 9.86911C51.8812 16.1739 49.0457 20.6321 43.6713 23.6492Z" fill="#EC3535"/>
<path d="M48.5556 14.3352C48.1681 14.1435 47.7362 14.311 47.5081 14.7388C47.4456 14.8579 47.3951 14.983 47.3346 15.1021C46.8701 16.0056 46.1097 16.7224 45.1805 17.1331C44.2513 17.5437 43.2094 17.6232 42.2286 17.3584C40.1357 16.7933 38.8158 14.9366 38.9228 12.7166C39.0136 10.7691 40.5878 8.9971 42.5253 8.65603C43.5393 8.45503 44.5917 8.61418 45.501 9.10603C46.4102 9.59787 47.1194 10.3916 47.5061 11.3503C47.5606 11.5246 47.628 11.6946 47.7079 11.8589C47.9925 12.3352 48.717 12.3755 48.9532 11.8912C49.0649 11.6024 49.0699 11.2832 48.9673 10.9911C48.4895 9.65952 47.5526 8.54197 46.3249 7.83914C45.0972 7.13632 43.6591 6.89429 42.2689 7.15652C40.8952 7.41588 39.6553 8.14726 38.7638 9.22414C37.8723 10.301 37.3853 11.6556 37.387 13.0536C37.3861 13.9817 37.6013 14.8973 38.0156 15.7278C38.4299 16.5582 39.0319 17.2809 39.7739 17.8384C40.5158 18.3959 41.3774 18.773 42.2904 18.9398C43.2034 19.1066 44.1427 19.0585 45.0339 18.7994C46.8502 18.2727 48.1297 17.1061 48.8886 15.3685C48.9352 15.2789 48.9636 15.181 48.9721 15.0803C48.9805 14.9797 48.969 14.8784 48.938 14.7823C48.907 14.6861 48.8573 14.5971 48.7916 14.5204C48.726 14.4436 48.6457 14.3807 48.5556 14.3352Z" fill="#EC3535"/>
<path d="M45.3873 11.1815C45.2459 11.3025 45.1111 11.4312 44.9837 11.5669L42.9958 13.5649C42.4488 12.9998 41.9463 12.461 41.4176 11.9504C41.0502 11.5952 40.6103 11.6093 40.3035 11.9504C40.2349 12.0242 40.1818 12.1112 40.1473 12.206C40.1129 12.3007 40.0979 12.4015 40.1032 12.5022C40.1084 12.6029 40.1339 12.7015 40.178 12.7922C40.2221 12.8829 40.284 12.9638 40.36 13.0301C41.0502 13.7405 41.7492 14.4408 42.4569 15.131C42.7758 15.4459 43.1754 15.4963 43.4963 15.1896C44.4986 14.2249 45.4815 13.24 46.4448 12.2349C46.7355 11.9342 46.7032 11.5528 46.4166 11.2259C46.3531 11.1534 46.2757 11.0946 46.1888 11.053C46.102 11.0113 46.0076 10.9877 45.9114 10.9836C45.8152 10.9794 45.7192 10.9948 45.6291 11.0288C45.539 11.0628 45.4568 11.1148 45.3873 11.1815Z" fill="#EC3535"/>
</g>
<defs>
<clipPath id="clip0_1_7815">
<rect width="48.7027" height="51.6634" fill="white" transform="translate(4.29691 2.82007)"/>
</clipPath>
</defs>
</svg>
