<svg width="18" height="18" viewBox="0 0 18 18" fill="none" xmlns="http://www.w3.org/2000/svg">
<path d="M9 0C13.9706 0 18 4.02944 18 9C18 13.9706 13.9706 18 9 18C4.02944 18 0 13.9706 0 9C0 4.02944 4.02944 0 9 0ZM5.90332 13.25C6.09026 13.8068 6.31093 14.3128 6.55762 14.7568C7.36459 16.2093 8.2794 16.75 9 16.75C9.7206 16.75 10.6354 16.2093 11.4424 14.7568C11.6891 14.3128 11.9097 13.8068 12.0967 13.25H5.90332ZM2.52051 13.25C3.35122 14.5139 4.54072 15.5199 5.94531 16.123C5.38977 15.3498 4.92619 14.3715 4.5918 13.25H2.52051ZM13.4082 13.25C13.0737 14.3717 12.6094 15.3497 12.0537 16.123C13.4587 15.5199 14.6486 14.5142 15.4795 13.25H13.4082ZM1.45117 7.25C1.32128 7.81257 1.25 8.39796 1.25 9C1.25 10.0637 1.46475 11.0772 1.85254 12H4.28613C4.10184 11.0616 4 10.052 4 9C4 8.40116 4.03372 7.81612 4.0957 7.25H1.45117ZM5.35352 7.25C5.28671 7.81013 5.25 8.39542 5.25 9C5.25 10.0716 5.36307 11.0828 5.56152 12H12.4385C12.6369 11.0828 12.75 10.0716 12.75 9C12.75 8.39542 12.7133 7.81013 12.6465 7.25H5.35352ZM13.9043 7.25C13.9663 7.81612 14 8.40116 14 9C14 10.052 13.8982 11.0616 13.7139 12H16.1475C16.5352 11.0772 16.75 10.0637 16.75 9C16.75 8.39796 16.6787 7.81257 16.5488 7.25H13.9043ZM5.94531 1.87598C4.1033 2.66685 2.62966 4.15074 1.85254 6H4.28613C4.60975 4.3521 5.19165 2.92474 5.94531 1.87598ZM9 1.25C8.2794 1.25 7.36459 1.79068 6.55762 3.24316C6.13701 4.00025 5.79156 4.93688 5.56152 6H12.4385C12.2084 4.93688 11.863 4.00025 11.4424 3.24316C10.6354 1.79068 9.7206 1.25 9 1.25ZM12.0537 1.87598C12.8075 2.92478 13.3902 4.35186 13.7139 6H16.1475C15.3702 4.15046 13.8961 2.66676 12.0537 1.87598Z" fill="white"/>
</svg>
