<svg width="58" height="58" viewBox="0 0 58 58" fill="none" xmlns="http://www.w3.org/2000/svg">
<path fill-rule="evenodd" clip-rule="evenodd" d="M33.3244 48.9939C34.0025 48.9566 34.6823 48.9566 35.3605 48.9939C35.6555 49.0061 35.9339 49.134 36.1359 49.3494C36.3378 49.5649 36.4474 49.8511 36.4406 50.1463C36.4489 50.451 36.3371 50.7468 36.13 50.9705C35.9229 51.1942 35.6366 51.3284 35.3322 51.3435C35.0033 51.3668 34.6647 51.3435 34.3429 51.3435C34.0118 51.3436 33.6805 51.3645 33.3517 51.3435C33.0484 51.3249 32.7635 51.1904 32.5568 50.9676C32.35 50.7447 32.2372 50.4502 32.2413 50.1463C32.2357 49.8511 32.3459 49.5656 32.548 49.3504C32.7502 49.135 33.0292 49.0067 33.3244 48.9939ZM29.0451 48.9715C29.8988 48.9715 30.4001 49.426 30.4025 50.1375C30.4048 50.849 29.8895 51.3344 29.0031 51.3367C27.4844 51.353 25.9702 51.3504 24.4562 51.3504H19.9142C19.0652 51.3503 18.4961 50.8489 18.5148 50.1375C18.5335 49.4261 19.0558 48.9716 19.9025 48.9715H29.0451ZM11.7404 44.4851H16.0978C16.9679 44.4851 17.5185 44.9518 17.5255 45.6726C17.5325 46.3934 16.9845 46.8783 16.1261 46.8807C13.2195 46.89 10.3134 46.89 7.40833 46.8807C6.52653 46.8807 5.98977 46.4142 5.98744 45.6863C5.98526 44.9587 6.53366 44.4855 7.45033 44.4832L11.7404 44.4851ZM50.715 5.94413C53.0128 5.94413 54.3149 7.74791 53.5988 9.93144C51.7232 15.6561 49.8352 21.378 47.9347 27.0965C47.8549 27.2552 47.8356 27.4374 47.881 27.6092C47.9265 27.7811 48.0337 27.9306 48.1818 28.0291C50.622 30.1774 52.3769 32.9958 53.2277 36.1336C54.0784 39.2714 53.9869 42.5909 52.966 45.6775C52.6255 46.6824 52.341 46.8874 51.2638 46.8875H23.0783C21.9678 46.8875 21.6781 46.708 21.3585 45.6326C21.0553 44.6132 20.8268 43.5752 20.5538 42.4998H6.44056C4.5743 42.4998 3.30992 41.1325 3.48255 39.3152C3.53192 38.9511 3.62228 38.5939 3.75111 38.2498C4.43926 36.1503 5.13641 34.0504 5.82923 31.951C5.87822 31.804 5.91589 31.6569 5.98353 31.4236H4.97767C4.14726 31.4236 3.60864 30.9564 3.58998 30.2566C3.57154 29.557 4.10342 29.0374 4.97572 29.0281C6.23756 29.0118 7.49941 29.0281 8.75892 29.0281H15.8068C16.0202 29.0223 16.2343 29.031 16.4464 29.0555C16.7505 29.0826 17.0326 29.226 17.2335 29.4559C17.4345 29.6858 17.5384 29.9848 17.5245 30.2898C17.5107 30.5948 17.3801 30.8828 17.1593 31.0935C16.9384 31.3043 16.6443 31.4212 16.339 31.4207C15.5832 31.4464 14.8243 31.4207 14.0685 31.4207H9.06068C8.68048 31.4207 8.48646 31.5005 8.36048 31.8992C7.57668 34.3323 6.7573 36.756 5.95716 39.1844C5.72393 39.8841 5.86422 40.0989 6.57533 40.1014H20.0851C20.1994 40.1014 20.3184 40.0876 20.4816 40.076C20.8898 33.8543 23.6383 28.9899 29.1134 25.9549C34.5884 22.9201 40.183 23.1859 45.7257 26.1648L49.1828 15.6863H48.4826C37.1452 15.6863 25.8086 15.6741 14.4728 15.6492C13.871 15.6492 13.5815 15.8262 13.4835 16.3953C13.4361 16.6034 13.3683 16.8064 13.2824 17.0017C13.0118 17.7016 12.4098 18.0144 11.7589 17.8045C11.6065 17.7539 11.4658 17.673 11.3458 17.5662C11.2258 17.4593 11.1286 17.3281 11.0607 17.1824C10.9929 17.0369 10.956 16.879 10.9513 16.7185C10.9466 16.558 10.9741 16.3981 11.0333 16.2488C11.8148 13.8367 12.601 11.4239 13.4152 9.0164C13.7065 8.18585 14.2417 7.46225 14.9503 6.94022C15.7802 6.282 16.81 5.92612 17.8693 5.93046C28.8163 5.93046 39.7649 5.9348 50.715 5.94413ZM38.4044 26.3055C38.1712 27.7047 37.9174 28.134 37.2062 28.1248C36.0258 28.1038 35.9319 27.2198 35.9249 26.3357C33.5106 26.3171 29.0207 28.2181 28.0382 29.6551C28.8219 30.5531 28.9709 31.1459 28.4601 31.6707C28.2735 31.8666 27.9376 32.1066 27.7277 32.0623C27.1834 31.9051 26.6523 31.7041 26.1408 31.4607C24.4029 33.397 22.9337 36.983 23.006 39.2225C24.4639 39.5164 24.8277 39.7592 24.7833 40.5057C24.7131 41.6599 23.8291 41.7016 22.9054 41.7156C23.043 42.4738 23.1947 43.1742 23.2951 43.8787C23.3674 44.387 23.6171 44.5056 24.1115 44.5057C32.8051 44.4901 41.5006 44.4901 50.1974 44.5057L50.881 44.4851C51.0583 43.5287 51.2242 42.6186 51.3898 41.7205C50.0297 41.6109 49.5235 41.2887 49.5119 40.5398C49.5119 40.2858 49.579 39.9086 49.7443 39.7986C50.254 39.5149 50.7835 39.267 51.3283 39.0584C51.0546 36.1996 49.9104 33.4934 48.049 31.3064C47.0461 32.1974 46.4628 32.3098 45.8937 31.7527C45.3245 31.1952 45.4271 30.6792 46.3019 29.5711C44.0759 27.6836 41.3134 26.5417 38.4044 26.3055ZM44.9347 34.1951C45.4222 33.8895 45.9211 33.8476 46.3947 34.1951C46.6015 34.33 46.7544 34.5337 46.8253 34.7703C46.8961 35.0068 46.8809 35.2608 46.7824 35.4871C46.6237 35.8127 46.3762 36.087 46.0685 36.2781C44.3096 37.4103 42.5378 38.5209 40.754 39.6111C40.5926 39.6871 40.4583 39.8106 40.3683 39.9646C40.2784 40.1187 40.237 40.2965 40.2501 40.4744C40.254 40.8833 40.1763 41.2896 40.0206 41.6678C39.865 42.0458 39.6344 42.3889 39.3439 42.6766C39.0534 42.9642 38.7078 43.1907 38.3283 43.3426C37.9487 43.4944 37.5426 43.5691 37.1339 43.5613C36.5197 43.5577 35.92 43.3709 35.4122 43.0252C34.9046 42.6795 34.5119 42.19 34.2833 41.6199C34.0553 41.0394 34.0064 40.4043 34.1427 39.7957C34.2791 39.1871 34.5941 38.6327 35.048 38.2049C35.5 37.7731 36.0751 37.4923 36.6935 37.4012C37.3119 37.3101 37.9438 37.4129 38.5011 37.6961C38.6502 37.7891 38.8248 37.8328 39.0001 37.8211C39.1755 37.8093 39.3432 37.7427 39.4786 37.6307C41.2864 36.4644 43.113 35.3357 44.9347 34.1951ZM37.8449 40.5057C37.853 40.5987 37.8402 40.6925 37.8078 40.7801C37.7752 40.8676 37.7243 40.9473 37.6574 41.0125C37.5904 41.0777 37.5095 41.1269 37.421 41.157C37.3326 41.1871 37.2384 41.197 37.1456 41.1863C37.053 41.1916 36.9597 41.1769 36.8732 41.1433C36.7867 41.1099 36.7086 41.0582 36.6437 40.992C36.5793 40.9262 36.529 40.8479 36.4972 40.7615L36.5578 40.8855C36.5823 40.9246 36.6112 40.9608 36.6437 40.9939C36.7085 41.0601 36.7868 41.1118 36.8732 41.1453C36.9597 41.1788 37.053 41.1935 37.1456 41.1883C37.2385 41.199 37.3326 41.1891 37.421 41.159C37.5095 41.1288 37.5904 41.0796 37.6574 41.0144C37.7244 40.9492 37.7762 40.8697 37.8087 40.782C37.8412 40.6945 37.8531 40.6006 37.8449 40.5076V40.5057ZM37.1369 39.7957C36.7821 39.8311 36.5599 39.9949 36.4874 40.284C36.5605 39.9956 36.785 39.8312 37.1369 39.7957ZM37.1915 39.7889C37.2821 39.7908 37.3718 39.811 37.4542 39.8484C37.5367 39.8859 37.6109 39.9406 37.672 40.0076C37.7329 40.0744 37.78 40.1527 37.8097 40.2381C37.8148 40.2528 37.8164 40.2689 37.8204 40.284C37.8165 40.2695 37.8156 40.2542 37.8107 40.24C37.7811 40.1542 37.7341 40.0748 37.673 40.0076C37.6119 39.9404 37.5378 39.8861 37.4552 39.8484C37.3727 39.8108 37.2832 39.7909 37.1925 39.7889H37.1915ZM4.94056 20.2517H26.6359C27.5478 20.2517 28.0565 20.6668 28.0753 21.406C28.0912 21.6999 27.9935 21.9893 27.8019 22.2127C27.6104 22.4359 27.3397 22.5762 27.047 22.6053C26.8144 22.6272 26.5803 22.6351 26.3468 22.6287C21.5739 22.6287 16.8033 22.6286 12.0304 22.617C11.5498 22.617 11.3517 22.7667 11.2257 23.2146C11.0134 23.9774 10.7306 24.7219 10.4786 25.4754C10.159 26.4338 9.61289 26.8274 8.9015 26.6082C8.12274 26.3748 7.89654 25.7244 8.22767 24.7029C8.42985 24.0808 8.62937 23.4535 8.82533 22.8221C8.84583 22.7849 8.8245 22.7422 8.79896 22.6238H5.00404C4.71537 22.636 4.42661 22.5928 4.15443 22.4959C3.91439 22.4055 3.71479 22.2318 3.59193 22.0066C3.46914 21.7816 3.4317 21.52 3.48548 21.2693C3.51363 21.0158 3.62624 20.7787 3.8058 20.5975C3.98526 20.4163 4.22061 20.3009 4.47376 20.2703C4.62825 20.2488 4.78485 20.2426 4.94056 20.2517ZM18.1212 8.3123C16.8825 8.3123 16.0216 8.83511 15.6437 9.87089C15.2565 10.9602 14.9181 12.0727 14.5216 13.2693H41.0968C43.8962 13.2693 46.6962 13.2694 49.4816 13.281C49.5607 13.2946 49.6417 13.2923 49.7199 13.2742C49.7982 13.256 49.8725 13.2227 49.9376 13.1756C50.0028 13.1284 50.0579 13.0685 50.0997 12.9998C50.1415 12.9312 50.1689 12.8546 50.1808 12.7752C50.5541 11.5738 50.9699 10.3834 51.3478 9.18437C51.5459 8.55481 51.3962 8.36161 50.7501 8.34062H50.1671L29.7667 8.32597L18.1212 8.3123ZM40.8331 9.658C40.9491 9.65032 41.0656 9.66799 41.174 9.70976C41.2823 9.75153 41.3803 9.81676 41.4611 9.90019C41.5418 9.98361 41.6035 10.0835 41.6417 10.1932C41.6799 10.3028 41.6941 10.4194 41.6828 10.535C41.6641 11.2861 40.8352 12.0302 40.0304 12.0232C39.4894 12.0231 39.1211 11.671 39.1281 11.1766C39.1281 10.4278 40.0307 9.63241 40.8331 9.658ZM44.4884 9.66972C44.6049 9.65957 44.7225 9.67458 44.8331 9.71269C44.9438 9.75083 45.0454 9.81155 45.131 9.8914C45.2165 9.9712 45.2845 10.0679 45.3302 10.1756C45.3759 10.2832 45.3987 10.3995 45.3966 10.5164C45.371 11.2582 44.5216 12.0166 43.7238 12.0027C43.2013 12.0027 42.8604 11.6762 42.8556 11.198C42.8556 10.4773 43.7047 9.67231 44.4884 9.66972ZM48.2179 9.66776C48.3292 9.6614 48.4405 9.678 48.5451 9.71659C48.6498 9.75524 48.7457 9.81509 48.8263 9.89237C48.9067 9.9696 48.9709 10.0629 49.0138 10.1658C49.0566 10.2687 49.0781 10.3796 49.0763 10.491C49.0808 11.2351 48.2545 12.0027 47.4474 12.0027C46.89 12.0027 46.5563 11.6829 46.5656 11.1629C46.5796 10.4234 47.4387 9.6491 48.2179 9.66776Z" fill="#EC3535"/>
</svg>
