<svg width="68" height="73" viewBox="0 0 68 73" fill="none" xmlns="http://www.w3.org/2000/svg">
<g clip-path="url(#clip0_2004_7256)">
<path d="M59.098 28.9783C59.36 28.7811 59.6249 28.5838 59.8813 28.3809C67.915 22.0324 69.5803 12.3756 66.6441 3.91932C66.3032 2.93308 65.5396 2.43995 64.5759 2.67383C63.4797 2.94152 62.4822 2.70201 61.4988 2.28779C60.5154 1.87357 59.4812 1.40862 58.4865 0.938043C57.2794 0.32663 55.9462 0.00544989 54.5931 6.87521e-05C53.24 -0.00531239 51.9043 0.305258 50.6924 0.907051C49.6751 1.38608 48.6466 1.83411 47.6125 2.27651C46.5783 2.71891 45.6062 2.93307 44.4791 2.6682C44.2663 2.61052 44.044 2.59686 43.8257 2.62807C43.6075 2.65929 43.3979 2.7347 43.2099 2.84971C43.0218 2.96472 42.8592 3.1169 42.7319 3.29694C42.6047 3.47698 42.5156 3.68109 42.4699 3.89677C42.0032 5.51552 41.6222 7.15778 41.3287 8.81671C41.1146 10.1214 41.1456 11.4655 41.0638 12.8349C40.8469 12.7645 40.6243 12.7081 40.4101 12.6264C35.5023 10.7357 30.1641 10.2526 24.9965 11.2316C15.6047 13.004 8.58547 18.1522 4.13047 26.586C0.160143 34.1068 -0.251261 41.9911 2.51867 50.0304C2.68211 50.5066 2.62857 50.794 2.26507 51.1209C1.74095 51.5886 1.2591 52.1071 0.765977 52.6087C-0.245625 53.6372 -0.262529 54.8179 0.743438 55.8267C5.89444 60.9946 11.0501 66.1606 16.2105 71.3248C17.2926 72.4068 18.4254 72.3899 19.5271 71.3022C20.3471 70.4963 21.1643 69.6848 21.9589 68.8563C22.0623 68.7195 22.2061 68.6187 22.3699 68.5681C22.5338 68.5175 22.7094 68.5198 22.8719 68.5745C27.6142 69.8017 32.5908 69.8017 37.333 68.5745C37.5046 68.5137 37.6909 68.5082 37.8658 68.5587C38.0407 68.6092 38.1953 68.7133 38.308 68.8563C39.1477 69.7411 40.009 70.6053 40.8919 71.4487C41.7627 72.2941 42.9123 72.3589 43.738 71.5586C45.8091 69.5495 47.8351 67.4925 49.8696 65.4439C49.9689 65.358 50.0503 65.2532 50.1088 65.1356C50.1674 65.018 50.202 64.89 50.2106 64.7589C50.2193 64.6278 50.2018 64.4963 50.1592 64.3721C50.1166 64.2478 50.0498 64.1332 49.9626 64.035C49.5455 63.4714 48.8354 63.4912 48.2719 64.0745C46.7897 65.5454 45.3141 67.0238 43.845 68.5097C43.3745 68.9916 42.9546 69.5213 42.5714 69.9609L37.0484 64.4436L52.6395 48.8328L58.0582 54.2712C56.0632 56.2831 54.0728 58.2829 52.0872 60.2704C51.4955 60.8649 51.4278 61.4567 51.8787 61.9329C52.3295 62.4091 52.9636 62.3725 53.5384 61.8005C55.5503 59.7979 57.5557 57.7879 59.5545 55.7703C60.4815 54.832 60.4731 53.6541 59.5545 52.6989C59.0388 52.155 58.5175 51.6112 57.9596 51.1124C57.5905 50.7827 57.5482 50.4925 57.7144 50.0247C59.8512 44.1325 60.0233 37.7069 58.2047 31.7088C58.0385 31.1452 57.6214 30.514 57.7708 30.0576C57.9201 29.6011 58.6359 29.3306 59.098 28.9783ZM17.8871 69.7299L2.33833 54.1444L7.63586 48.8666L23.1988 64.4605C21.4433 66.216 19.6342 67.9997 17.8871 69.7299ZM36.1214 66.6979C32.1673 67.5939 28.0629 67.5939 24.1089 66.6979C24.9233 65.937 25.8278 65.1537 25.3854 64.0519C25.0247 63.1587 24.2864 62.4176 23.8102 61.7413C25.8363 59.642 27.913 57.4892 29.9475 55.3871L36.3299 61.7554C35.8227 62.5556 35.1436 63.308 34.8336 64.1928C34.4673 65.2439 35.3605 65.9342 36.1214 66.6979ZM38.0347 60.1408L31.9791 54.0993C33.0922 54.0176 34.1038 53.8514 35.1098 53.8852C36.9723 53.95 38.8152 53.9866 40.5707 53.2342C40.9834 53.0687 41.3828 52.8718 41.7655 52.6453C41.8858 52.5805 41.9913 52.4915 42.0755 52.3838C42.1597 52.2762 42.2206 52.1523 42.2545 52.0199C42.2884 51.8875 42.2945 51.7495 42.2724 51.6147C42.2503 51.4799 42.2005 51.351 42.1262 51.2364C41.8106 50.7405 41.3315 50.5094 40.799 50.8081C38.9505 51.8563 36.9639 51.8535 34.9238 51.7436C33.608 51.6523 32.2881 51.8468 31.0546 52.3137C29.8211 52.7806 28.7032 53.509 27.7778 54.4487C25.8729 56.3226 24.0075 58.2359 22.1674 60.0844L11.2962 49.2047C12.1219 48.3819 13.0095 47.483 13.9225 46.6123C14.0004 46.5561 14.0906 46.5191 14.1856 46.5044C14.2806 46.4897 14.3778 46.4977 14.4691 46.5278C15.004 46.7712 15.5849 46.8968 16.1725 46.8962C16.7601 46.8956 17.3408 46.7687 17.8751 46.5243C18.4095 46.2798 18.8851 45.9234 19.2698 45.4792C19.6544 45.035 19.9392 44.5133 20.1048 43.9495C20.1048 43.91 20.164 43.8818 20.195 43.8509C23.2269 45.0513 25.4559 43.5155 26.2195 41.0809C27.7439 41.6135 29.2092 41.5008 30.4913 40.4328C31.7734 39.3649 32.1313 37.9249 31.8692 36.2906C32.0947 36.2342 32.275 36.1948 32.4497 36.1469C33.1258 35.9611 33.7429 35.6047 34.2416 35.1119C34.7404 34.619 35.1041 34.0062 35.2979 33.3324C35.4917 32.6585 35.509 31.9461 35.3483 31.2636C35.1875 30.5811 34.8541 29.9514 34.3799 29.4348C33.8727 28.8712 33.2979 28.395 32.6892 27.8174C32.9964 27.499 33.2528 27.2341 33.5008 26.972C34.3461 26.1267 35.1774 25.2672 36.0368 24.436C36.8963 23.6047 38.0093 23.5906 38.818 24.3233C39.6267 25.0559 39.6634 26.1239 38.9899 27.0537C38.494 27.7272 38.4686 28.257 38.911 28.6825C39.3534 29.1079 39.8353 29.0826 40.4805 28.6007C41.3794 27.9329 42.453 27.9611 43.1659 28.6768C43.8789 29.3925 43.9099 30.4521 43.2956 31.3735C43.0544 31.6984 42.932 32.0963 42.949 32.5006C43.0983 33.346 43.9831 33.4925 44.7834 32.8923C46.012 31.9709 47.6012 32.4527 47.9844 33.8757C48.067 34.183 48.074 34.5058 48.0048 34.8163C47.9356 35.1269 47.7923 35.4162 47.5871 35.6594C47.0827 36.3301 47.063 36.8598 47.5054 37.2853C47.9478 37.7108 48.424 37.677 49.1285 37.1557C49.505 36.8479 49.9819 36.6901 50.4676 36.7124C50.9534 36.7348 51.4137 36.9358 51.7603 37.2768C52.0972 37.6266 52.2968 38.0859 52.3227 38.5708C52.3485 39.0556 52.1989 39.5336 51.9012 39.9172C51.7276 40.1372 51.5393 40.3452 51.3377 40.5399L44.5749 47.3027C44.4424 47.4351 44.2931 47.5619 44.1804 47.7028C43.7408 48.21 43.7408 48.7933 44.1804 49.2132C44.2784 49.3162 44.397 49.3974 44.5285 49.4516C44.66 49.5058 44.8014 49.5318 44.9436 49.5278C45.0857 49.5238 45.2254 49.49 45.3537 49.4285C45.4819 49.367 45.5958 49.2793 45.6879 49.1709C46.2797 48.6074 46.8319 47.9959 47.3589 47.4464L49.0045 49.1371L38.0347 60.1408ZM28.6428 28.7642C30.6153 28.5923 31.7199 29.5729 32.8189 30.8437C33.0789 31.1192 33.2527 31.4647 33.3188 31.8377C33.3849 32.2108 33.3404 32.595 33.1908 32.943C32.8949 33.6869 32.3032 34.1716 31.5198 34.1096C30.9228 34.0746 30.3524 33.8506 29.8911 33.4699C27.5429 31.2157 25.2351 28.9154 22.9677 26.5691C21.8208 25.3912 22.3111 23.6836 23.906 23.2638C23.9239 23.8658 23.9784 24.4662 24.0695 25.0615C24.5316 27.2284 26.4167 28.9586 28.6428 28.7642ZM26.1068 23.2553C26.1666 23.1296 26.2561 23.0204 26.3675 22.9369C26.479 22.8535 26.609 22.7983 26.7464 22.7763C28.5949 22.7425 30.4462 22.7481 32.2976 22.7763C32.9203 22.7763 33.3909 23.1257 33.76 23.6949L30.8802 26.5888C30.8349 26.6436 30.7723 26.6814 30.7027 26.6959C29.5445 26.6818 28.347 26.9495 27.2762 26.2732C26.794 25.9524 26.4235 25.4896 26.216 24.9489C26.0086 24.4082 25.9743 23.8163 26.118 23.2553H26.1068ZM29.2064 35.8313C29.4033 36.0096 29.5622 36.2258 29.6735 36.467C29.7848 36.7082 29.8462 36.9694 29.8541 37.2349C29.862 37.5004 29.8162 37.7648 29.7194 38.0122C29.6227 38.2595 29.4769 38.4848 29.2909 38.6745C28.4991 39.4888 27.2818 39.4917 26.4055 38.621C23.8243 36.0624 21.2563 33.4925 18.7015 30.9114C18.3932 30.6347 18.182 30.2661 18.0993 29.8601C18.0166 29.4542 18.0667 29.0324 18.2422 28.6571C18.5634 27.8935 19.1946 27.53 20.2795 27.437C20.5613 27.5919 21.1248 27.7667 21.4968 28.133C24.0864 30.6718 26.6478 33.2473 29.2036 35.8313H29.2064ZM23.6271 38.883C23.8027 39.066 23.9402 39.2821 24.0316 39.5187C24.123 39.7554 24.1664 40.0078 24.1593 40.2614C24.1522 40.5149 24.0948 40.7645 23.9904 40.9957C23.8859 41.2269 23.7366 41.4349 23.551 41.6079C23.1998 41.9628 22.7248 42.1679 22.2256 42.1799C21.7264 42.192 21.242 42.0102 20.8741 41.6727C18.6311 39.4804 16.4153 37.259 14.2268 35.0085C13.9577 34.7381 13.7845 34.3871 13.7336 34.0091C13.6827 33.631 13.757 33.2467 13.945 32.9148C14.3029 32.1766 14.9115 31.7877 15.7935 31.6778C16.2049 31.8722 16.7037 31.9793 17.0136 32.2808C19.2472 34.4543 21.4517 36.655 23.6271 38.883ZM13.9535 37.8376C15.2553 39.0436 16.4895 40.3173 17.7181 41.6107C17.9999 41.8925 18.0703 42.394 18.2366 42.7942C18.1154 43.6395 17.7463 44.2313 17.0333 44.5779C16.7032 44.7654 16.3216 44.842 15.9447 44.7963C15.5678 44.7507 15.2155 44.5852 14.9397 44.3243C13.666 43.1182 12.4177 41.8812 11.223 40.5991C10.9039 40.2309 10.7385 39.7541 10.7611 39.2674C10.7836 38.7807 10.9924 38.3213 11.3441 37.9841C12.0401 37.2797 13.2236 37.15 13.9591 37.8348L13.9535 37.8376ZM55.8772 48.968C55.4404 48.5426 55.0572 48.1791 54.6853 47.8071C53.1129 46.2347 52.431 46.184 50.7656 47.5253C50.2303 46.9617 49.6949 46.4292 49.0214 45.7444C49.3765 45.4288 49.8245 45.0625 50.2359 44.6596C51.1742 43.741 52.0872 42.7942 53.0255 41.8756C54.3584 40.5681 54.8261 39.007 54.1837 37.2515C53.5581 35.5382 52.2112 34.6873 50.3993 34.6084C50.3369 34.5965 50.2763 34.5766 50.219 34.5492C50.2198 33.4245 49.7856 32.3431 49.0073 31.5313C48.6 31.1267 48.1161 30.8073 47.5838 30.592C47.0516 30.3767 46.4818 30.2697 45.9077 30.2773C45.9211 29.1342 45.4838 28.0318 44.6904 27.2087C44.2936 26.8112 43.821 26.4973 43.3007 26.2858C42.7804 26.0743 42.2229 25.9694 41.6612 25.9773C41.4696 22.5142 38.3362 20.7362 35.3352 22.2324C34.3039 20.8799 32.8555 20.5417 31.224 20.6234C29.9137 20.677 28.5977 20.5896 27.279 20.6516C26.5919 20.7284 25.9111 20.8537 25.2417 21.0264C25.0842 21.0606 24.9238 21.0795 24.7627 21.0827C22.0265 21.032 20.4655 22.4466 20.1865 25.3095C19.0594 25.3715 18.0055 25.6871 17.1658 26.5184C16.7585 26.9233 16.438 27.407 16.2238 27.9399C16.0097 28.4728 15.9064 29.0438 15.9203 29.618C14.486 29.6912 13.2546 30.1815 12.4065 31.3678C11.5583 32.5542 11.423 33.8729 11.9162 35.3128C11.7358 35.3833 11.5724 35.4565 11.4061 35.5157C10.7597 35.7386 10.1794 36.1201 9.71854 36.6252C9.25764 37.1304 8.9308 37.743 8.76792 38.4072C8.60504 39.0713 8.61133 39.7657 8.78621 40.4267C8.9611 41.0878 9.29899 41.6944 9.76896 42.1911C10.6481 43.1295 11.6006 43.9974 12.4769 44.8568C11.4822 45.8459 10.5608 46.7645 9.60553 47.7113C9.46182 47.5789 9.24484 47.3675 9.0166 47.1703C8.6405 46.8062 8.13637 46.6045 7.61293 46.6087C7.08949 46.6129 6.58868 46.8227 6.21849 47.1928C5.62393 47.7564 5.09135 48.3876 4.55033 48.9878L4.26854 48.9173C3.95576 47.6408 3.56972 46.3813 3.33584 45.0879C2.12873 38.5613 3.34677 31.8186 6.76107 26.1269C10.1754 20.4352 15.5508 16.1864 21.8772 14.1791C28.2878 12.1446 34.6307 12.4883 40.8271 15.1202C40.9744 15.1883 41.1059 15.2864 41.2131 15.4082C41.3203 15.53 41.401 15.6728 41.4499 15.8275C42.918 23.044 47.3335 27.9104 53.6511 31.2805C54.3753 31.6665 55.0459 31.5172 55.7814 31.103C57.8046 36.8807 57.8383 43.169 55.8772 48.968V48.968ZM54.9755 29.0826C54.8601 29.1421 54.7333 29.1765 54.6036 29.1833C54.4738 29.1901 54.3442 29.1692 54.2231 29.122C49.5568 26.586 45.9528 23.0665 44.2226 17.9155C42.7686 13.5845 42.9687 9.24502 44.3579 4.82102C46.4403 5.20988 48.1845 4.37017 49.94 3.58117C50.7093 3.2374 51.4757 2.88798 52.2535 2.56675C52.9781 2.25725 53.7578 2.09768 54.5458 2.09768C55.3337 2.09768 56.1135 2.25725 56.8381 2.56675C57.9399 3.02324 59.0275 3.51918 60.1152 4.00667C61.8933 4.80412 62.7781 4.976 64.7337 4.87738C65.3164 6.47482 65.6721 8.14612 65.7903 9.8424C66.4384 18.6453 62.4794 24.8699 54.9755 29.0826V29.0826Z" fill="#EC3535"/>
<path d="M61.7951 16.0783C61.2541 15.8106 60.651 16.0445 60.3326 16.6419C60.2453 16.8081 60.1748 16.9828 60.0903 17.1491C59.4417 18.4105 58.3801 19.4115 57.0827 19.9848C55.7853 20.5581 54.3306 20.6692 52.9612 20.2994C50.0391 19.5104 48.1962 16.918 48.3456 13.8184C48.4724 11.0992 50.6703 8.62513 53.3754 8.14891C54.7912 7.86828 56.2606 8.09049 57.5302 8.77722C58.7997 9.46395 59.7898 10.5721 60.3298 11.9107C60.4058 12.1541 60.5 12.3915 60.6116 12.6208C61.0089 13.2858 62.0205 13.3422 62.3502 12.6659C62.5063 12.2627 62.5133 11.817 62.3699 11.4092C61.7028 9.55002 60.3947 7.98966 58.6806 7.00836C56.9664 6.02706 54.9585 5.68913 53.0175 6.05526C51.0995 6.41739 49.3683 7.43857 48.1236 8.94213C46.8789 10.4457 46.1988 12.337 46.2012 14.289C46.2 15.5848 46.5005 16.8631 47.0789 18.0227C47.6574 19.1822 48.4979 20.1911 49.5338 20.9696C50.5698 21.748 51.7728 22.2745 53.0475 22.5074C54.3222 22.7403 55.6337 22.6732 56.878 22.3114C59.414 21.5759 61.2005 19.9472 62.26 17.521C62.3251 17.396 62.3647 17.2592 62.3766 17.1187C62.3884 16.9782 62.3723 16.8367 62.329 16.7025C62.2858 16.5683 62.2163 16.444 62.1246 16.3369C62.033 16.2297 61.921 16.1418 61.7951 16.0783V16.0783Z" fill="#EC3535"/>
<path d="M57.3715 11.6747C57.174 11.8437 56.9859 12.0234 56.8079 12.2129L54.0324 15.0025C53.2687 14.2135 52.5671 13.4612 51.8288 12.7483C51.316 12.2523 50.7017 12.272 50.2734 12.7483C50.1775 12.8514 50.1033 12.9728 50.0553 13.1051C50.0072 13.2375 49.9863 13.3781 49.9936 13.5187C50.001 13.6594 50.0365 13.7971 50.0981 13.9237C50.1597 14.0503 50.2462 14.1632 50.3523 14.2558C51.316 15.2477 52.2919 16.2255 53.28 17.1892C53.7252 17.6288 54.2831 17.6992 54.7312 17.2709C56.1307 15.924 57.503 14.5489 58.848 13.1456C59.2538 12.7257 59.2087 12.1932 58.8086 11.7367C58.72 11.6355 58.6118 11.5534 58.4906 11.4953C58.3694 11.4371 58.2376 11.4042 58.1033 11.3984C57.969 11.3926 57.8349 11.4141 57.7091 11.4616C57.5833 11.5091 57.4685 11.5816 57.3715 11.6747V11.6747Z" fill="#EC3535"/>
</g>
<defs>
<clipPath id="clip0_2004_7256">
<rect width="68" height="72.1338" fill="white"/>
</clipPath>
</defs>
</svg>
