<svg width="20" height="12" viewBox="0 0 20 12" fill="none" xmlns="http://www.w3.org/2000/svg">
<path d="M11.2812 5.62501C11.2812 8.73126 8.75625 11.25 5.64 11.25C4.90033 11.251 4.16771 11.1063 3.48396 10.8241C2.80022 10.542 2.17875 10.1279 1.65502 9.60559C1.1313 9.08326 0.715587 8.46289 0.431617 7.7799C0.147648 7.09691 0.000984258 6.36468 0 5.62501C0 2.51751 2.525 6.80486e-06 5.64 6.80486e-06C6.37978 -0.00114308 7.11253 0.143449 7.79642 0.425525C8.48031 0.707601 9.10193 1.12163 9.62579 1.64398C10.1496 2.16633 10.5655 2.78675 10.8495 3.46982C11.1336 4.15289 11.2803 4.88523 11.2812 5.62501ZM17.4688 5.62501C17.4688 8.55001 16.2062 10.92 14.6488 10.92C13.0912 10.92 11.8288 8.54876 11.8288 5.62501C11.8288 2.70001 13.0912 0.330007 14.6488 0.330007C16.2062 0.330007 17.4688 2.70126 17.4688 5.62501ZM20 5.62501C20 8.24501 19.5562 10.3688 19.0075 10.3688C18.46 10.3688 18.0163 8.24376 18.0163 5.62501C18.0163 3.00501 18.46 0.881257 19.0087 0.881257C19.5562 0.881257 20 3.00501 20 5.62501Z" fill="#EC3535"/>
</svg>
