<svg width="20" height="20" viewBox="0 0 20 20" fill="none" xmlns="http://www.w3.org/2000/svg">
<path d="M17.7001 5.29984C17.5001 4.59984 17.0001 4.09984 16.3001 3.89984C14.2001 3.69984 12.1001 3.49984 10.0001 3.59984C7.90005 3.59984 5.80005 3.69984 3.70005 3.89984C3.10005 4.09984 2.50005 4.69984 2.30005 5.29984C1.90128 8.42049 1.90128 11.5792 2.30005 14.6998C2.50005 15.3998 3.00005 15.8998 3.70005 16.0998C5.80005 16.2998 7.90005 16.4998 10.0001 16.3998C12.1001 16.3998 14.2001 16.2998 16.3001 16.0998C17.0001 15.8998 17.5001 15.3998 17.7001 14.6998C18.0988 11.5792 18.0988 8.42049 17.7001 5.29984ZM8.00005 12.9998V6.99984L13.2001 9.99984L8.00005 12.9998Z" fill="#EC3535"/>
</svg>
